<svg width="32" height="32" viewBox="0 0 32 32" fill="none" xmlns="http://www.w3.org/2000/svg">
<path d="M24.0001 5.3335H8.00008C5.05341 5.3335 2.66675 7.72016 2.66675 10.6668V21.3335C2.66675 24.2802 5.05341 26.6668 8.00008 26.6668H24.0001C26.9467 26.6668 29.3334 24.2802 29.3334 21.3335V10.6668C29.3334 7.72016 26.9467 5.3335 24.0001 5.3335ZM21.5201 18.3602C21.2001 18.6268 20.7601 18.7335 20.3467 18.6268L5.53341 15.0002C5.93341 14.0268 6.88008 13.3335 8.00008 13.3335H24.0001C24.8934 13.3335 25.6801 13.7868 26.1734 14.4535L21.5201 18.3602ZM8.00008 8.00016H24.0001C25.4667 8.00016 26.6667 9.20016 26.6667 10.6668V11.4002C25.8801 10.9468 24.9734 10.6668 24.0001 10.6668H8.00008C7.02675 10.6668 6.12008 10.9468 5.33341 11.4002V10.6668C5.33341 9.20016 6.53341 8.00016 8.00008 8.00016Z" fill="white"/>
</svg>
