<svg width="42" height="37" viewBox="0 0 42 37" fill="none" xmlns="http://www.w3.org/2000/svg">
<g clip-path="url(#clip0_1408_693)">
<path d="M41.0267 0L23.0049 12.5305L26.3562 5.14593L41.0267 0Z" fill="#E17726"/>
<path d="M1.01563 0.0146484L15.6469 5.1467L18.829 12.6281L1.01563 0.0146484ZM33.7738 26.6488L41.7392 26.7912L38.9554 35.6777L29.2359 33.1631L33.7738 26.6488ZM8.22585 26.6488L12.7469 33.1631L3.04377 35.6779L0.276855 26.7912L8.22585 26.6488Z" fill="#E27625"/>
<path d="M18.3965 10.7225L18.722 20.602L8.98145 20.1856L11.7521 16.2577L11.7872 16.22L18.3965 10.7225ZM23.5026 10.6123L30.2128 16.2203L30.2476 16.2579L33.0182 20.1857L23.2798 20.602L23.5026 10.6123ZM13.0323 26.6776L18.3509 30.5716L12.1726 33.3746L13.0323 26.6776ZM28.9687 26.6769L29.8105 33.3747L23.6495 30.5713L28.9687 26.6769Z" fill="#E27625"/>
<path d="M23.7852 30.2046L30.0371 33.0493L24.2216 35.6464L24.282 33.9299L23.7852 30.2046ZM18.2125 30.2058L17.7352 33.9018L17.7745 35.6444L11.9453 33.0493L18.2125 30.2058Z" fill="#D5BFB2"/>
<path d="M16.4075 21.8916L18.0412 25.118L12.479 23.5868L16.4075 21.8916ZM25.5925 21.8919L29.5395 23.5868L23.9591 25.1175L25.5925 21.8919Z" fill="#233447"/>
<path d="M13.4573 26.6446L12.5583 33.5883L7.73926 26.7965L13.4573 26.6446ZM28.5429 26.6448L34.2611 26.7965L29.4241 33.5886L28.5429 26.6448ZM33.1589 19.793L28.9975 23.7783L25.7889 22.4005L24.2528 25.4352L23.2458 20.2168L33.1589 19.793ZM8.8388 19.793L18.7539 20.2168L17.7467 25.4352L16.2103 22.401L13.0188 23.7785L8.8388 19.793Z" fill="#CC6228"/>
<path d="M8.55859 18.9753L13.2669 23.4648L13.4299 27.8969L8.55859 18.9753ZM33.4464 18.9673L28.5662 27.9048L28.7499 23.4648L33.4464 18.9673ZM18.5239 19.2488L18.7134 20.3696L19.1816 23.1617L18.8806 31.7372L17.4573 24.8483L17.4569 24.7771L18.5239 19.2488ZM23.4738 19.2332L24.5437 24.7771L24.5432 24.8483L23.1164 31.7545L23.0599 30.027L22.8373 23.1108L23.4738 19.2332Z" fill="#E27525"/>
<path d="M29.1686 23.2861L29.0093 27.1369L24.0424 30.7732L23.0384 30.1066L24.1639 24.6591L29.1686 23.2861ZM12.8491 23.2861L17.8365 24.6591L18.9619 30.1066L17.9579 30.7732L12.9909 27.1366L12.8491 23.2861Z" fill="#F5841F"/>
<path d="M10.9951 32.1987L17.3496 35.028L17.3227 33.8198L17.8544 33.3812H24.1436L24.6945 33.8183L24.6538 35.0255L30.9681 32.2058L27.8955 34.5917L24.1803 36.9895H17.8034L14.0906 34.5818L10.9951 32.1987Z" fill="#C0AC9D"/>
<path d="M23.3306 29.8281L24.229 30.4246L24.7554 34.3719L23.9935 33.7674H18.0092L17.2617 34.3841L17.771 30.4249L18.6697 29.8281H23.3306Z" fill="#161616"/>
<path d="M39.8367 0.34668L42 6.44505L40.6489 12.6113L41.611 13.3086L40.3092 14.2419L41.2876 14.952L39.992 16.0606L40.7874 16.6019L38.6766 18.9184L30.019 16.5496L29.944 16.5118L23.7052 11.5665L39.8367 0.34668ZM2.16333 0.34668L18.2949 11.5665L12.056 16.5118L11.981 16.5496L3.32341 18.9184L1.21259 16.6019L2.0073 16.061L0.712523 14.952L1.68902 14.2426L0.367664 13.3067L1.36598 12.6089L0 6.44536L2.16333 0.34668Z" fill="#763E1A"/>
<path d="M29.5956 16.032L38.7688 18.5417L41.749 27.1729H33.8864L28.4691 27.237L32.4089 20.0208L29.5956 16.032ZM12.4044 16.032L9.59059 20.0208L13.5309 27.237L8.116 27.1729H0.267578L3.23104 18.5418L12.4044 16.032ZM26.8052 5.10498L24.2394 11.6168L23.6949 20.4136L23.4865 23.1708L23.47 30.2144H18.5299L18.5138 23.1841L18.3048 20.4113L17.7601 11.6168L15.1946 5.10498H26.8052Z" fill="#F5841F"/>
</g>
<defs>
<clipPath id="clip0_1408_693">
<rect width="42" height="37" fill="white"/>
</clipPath>
</defs>
</svg>
